<svg xmlns="http://www.w3.org/2000/svg" viewBox="0 0 1110 120" width="1110" height="120" font-family="-apple-system,'PingFang SC','Microsoft YaHei',sans-serif">
  <rect x="10" y="10" width="130" height="100" rx="10" fill="#ede9fe" stroke="#c4b5fd"/>
  <circle cx="75" cy="35" r="12" fill="#7c3aed"/><text x="75" y="39" text-anchor="middle" fill="#fff" font-size="12" font-weight="700">1</text>
  <text x="75" y="62" text-anchor="middle" fill="#5b21b6" font-size="14" font-weight="700">看得见</text>
  <text x="75" y="84" text-anchor="middle" fill="#6d28d9" font-size="11">自然语言问系统</text>
  <text x="155" y="66" text-anchor="middle" fill="#93c5fd" font-size="22" font-weight="700">→</text>

  <rect x="170" y="10" width="130" height="100" rx="10" fill="#ffe4e6" stroke="#fda4af"/>
  <circle cx="235" cy="35" r="12" fill="#e11d48"/><text x="235" y="39" text-anchor="middle" fill="#fff" font-size="12" font-weight="700">2</text>
  <text x="235" y="62" text-anchor="middle" fill="#9f1239" font-size="14" font-weight="700">军团协同</text>
  <text x="235" y="84" text-anchor="middle" fill="#be123c" font-size="11">多Agent协同</text>
  <text x="315" y="66" text-anchor="middle" fill="#93c5fd" font-size="22" font-weight="700">→</text>

  <rect x="330" y="10" width="130" height="100" rx="10" fill="#fef3c7" stroke="#fcd34d"/>
  <circle cx="395" cy="35" r="12" fill="#d97706"/><text x="395" y="39" text-anchor="middle" fill="#fff" font-size="12" font-weight="700">3</text>
  <text x="395" y="62" text-anchor="middle" fill="#92400e" font-size="14" font-weight="700">会巡检</text>
  <text x="395" y="84" text-anchor="middle" fill="#b45309" font-size="11">服务巡检报告</text>
  <text x="475" y="66" text-anchor="middle" fill="#93c5fd" font-size="22" font-weight="700">→</text>

  <rect x="490" y="10" width="130" height="100" rx="10" fill="#fef3c7" stroke="#fcd34d"/>
  <circle cx="555" cy="35" r="12" fill="#d97706"/><text x="555" y="39" text-anchor="middle" fill="#fff" font-size="12" font-weight="700">4</text>
  <text x="555" y="62" text-anchor="middle" fill="#92400e" font-size="14" font-weight="700">会诊断</text>
  <text x="555" y="84" text-anchor="middle" fill="#b45309" font-size="11">根因分析</text>
  <text x="635" y="66" text-anchor="middle" fill="#93c5fd" font-size="22" font-weight="700">→</text>

  <rect x="650" y="10" width="130" height="100" rx="10" fill="#fef3c7" stroke="#fcd34d"/>
  <circle cx="715" cy="35" r="12" fill="#d97706"/><text x="715" y="39" text-anchor="middle" fill="#fff" font-size="12" font-weight="700">5</text>
  <text x="715" y="62" text-anchor="middle" fill="#92400e" font-size="14" font-weight="700">会修</text>
  <text x="715" y="84" text-anchor="middle" fill="#b45309" font-size="11">自动修复</text>
  <text x="795" y="66" text-anchor="middle" fill="#93c5fd" font-size="22" font-weight="700">→</text>

  <rect x="810" y="10" width="130" height="100" rx="10" fill="#ecfdf5" stroke="#a7f3d0"/>
  <circle cx="875" cy="35" r="12" fill="#059669"/><text x="875" y="39" text-anchor="middle" fill="#fff" font-size="12" font-weight="700">6</text>
  <text x="875" y="62" text-anchor="middle" fill="#065f46" font-size="14" font-weight="700">会预测</text>
  <text x="875" y="84" text-anchor="middle" fill="#047857" font-size="11">容量分析</text>
  <text x="955" y="66" text-anchor="middle" fill="#93c5fd" font-size="22" font-weight="700">→</text>

  <rect x="970" y="10" width="130" height="100" rx="10" fill="#f1f5f9" stroke="#cbd5e1"/>
  <circle cx="1035" cy="35" r="12" fill="#475569"/><text x="1035" y="39" text-anchor="middle" fill="#fff" font-size="12" font-weight="700">7</text>
  <text x="1035" y="62" text-anchor="middle" fill="#334155" font-size="14" font-weight="700">会答疑</text>
  <text x="1035" y="84" text-anchor="middle" fill="#475569" font-size="11">答疑专家</text>
</svg>
