<svg xmlns="http://www.w3.org/2000/svg" viewBox="0 0 1082 340" width="1082" height="340" font-family="-apple-system,Inter,Arial,sans-serif">
  <rect x="8" y="8" width="130" height="104" rx="12" fill="#ede9fe" stroke="#c4b5fd"/>
  <circle cx="73.0" cy="36" r="15" fill="#7c3aed"/><text x="73.0" y="42" text-anchor="middle" fill="#fff" font-size="16" font-weight="700">1</text>
  <text x="73.0" y="70" text-anchor="middle" fill="#5b21b6" font-size="20" font-weight="700">Visible</text>
  <text x="73.0" y="93" text-anchor="middle" fill="#6d28d9" font-size="14">Natural language</text>
  <text x="151.0" y="72" text-anchor="middle" fill="#93c5fd" font-size="32" font-weight="700">→</text>
  <rect x="164" y="8" width="130" height="104" rx="12" fill="#ffe4e6" stroke="#fda4af"/>
  <circle cx="229.0" cy="36" r="15" fill="#e11d48"/><text x="229.0" y="42" text-anchor="middle" fill="#fff" font-size="16" font-weight="700">2</text>
  <text x="229.0" y="70" text-anchor="middle" fill="#9f1239" font-size="20" font-weight="700">Legion</text>
  <text x="229.0" y="93" text-anchor="middle" fill="#be123c" font-size="14">Multi-agent</text>
  <text x="307.0" y="72" text-anchor="middle" fill="#93c5fd" font-size="32" font-weight="700">→</text>
  <rect x="320" y="8" width="130" height="104" rx="12" fill="#fef3c7" stroke="#fcd34d"/>
  <circle cx="385.0" cy="36" r="15" fill="#d97706"/><text x="385.0" y="42" text-anchor="middle" fill="#fff" font-size="16" font-weight="700">3</text>
  <text x="385.0" y="70" text-anchor="middle" fill="#92400e" font-size="20" font-weight="700">Inspect</text>
  <text x="385.0" y="93" text-anchor="middle" fill="#b45309" font-size="14">Inspection</text>
  <text x="463.0" y="72" text-anchor="middle" fill="#93c5fd" font-size="32" font-weight="700">→</text>
  <rect x="476" y="8" width="130" height="104" rx="12" fill="#fef3c7" stroke="#fcd34d"/>
  <circle cx="541.0" cy="36" r="15" fill="#d97706"/><text x="541.0" y="42" text-anchor="middle" fill="#fff" font-size="16" font-weight="700">4</text>
  <text x="541.0" y="70" text-anchor="middle" fill="#92400e" font-size="20" font-weight="700">Diagnose</text>
  <text x="541.0" y="93" text-anchor="middle" fill="#b45309" font-size="14">Root cause</text>
  <text x="619.0" y="72" text-anchor="middle" fill="#93c5fd" font-size="32" font-weight="700">→</text>
  <rect x="632" y="8" width="130" height="104" rx="12" fill="#fef3c7" stroke="#fcd34d"/>
  <circle cx="697.0" cy="36" r="15" fill="#d97706"/><text x="697.0" y="42" text-anchor="middle" fill="#fff" font-size="16" font-weight="700">5</text>
  <text x="697.0" y="70" text-anchor="middle" fill="#92400e" font-size="20" font-weight="700">Repair</text>
  <text x="697.0" y="93" text-anchor="middle" fill="#b45309" font-size="14">Ops expert</text>
  <text x="775.0" y="72" text-anchor="middle" fill="#93c5fd" font-size="32" font-weight="700">→</text>
  <rect x="788" y="8" width="130" height="104" rx="12" fill="#ecfdf5" stroke="#a7f3d0"/>
  <circle cx="853.0" cy="36" r="15" fill="#059669"/><text x="853.0" y="42" text-anchor="middle" fill="#fff" font-size="16" font-weight="700">6</text>
  <text x="853.0" y="70" text-anchor="middle" fill="#065f46" font-size="20" font-weight="700">Predict</text>
  <text x="853.0" y="93" text-anchor="middle" fill="#047857" font-size="14">Capacity</text>
  <text x="931.0" y="72" text-anchor="middle" fill="#93c5fd" font-size="32" font-weight="700">→</text>
  <rect x="944" y="8" width="130" height="104" rx="12" fill="#f1f5f9" stroke="#cbd5e1"/>
  <circle cx="1009.0" cy="36" r="15" fill="#475569"/><text x="1009.0" y="42" text-anchor="middle" fill="#fff" font-size="16" font-weight="700">7</text>
  <text x="1009.0" y="70" text-anchor="middle" fill="#334155" font-size="20" font-weight="700">Answer</text>
  <text x="1009.0" y="93" text-anchor="middle" fill="#475569" font-size="14">Q&amp;A expert</text>
  <rect x="33" y="142" width="16" height="16" rx="3" fill="#c4b5fd"/>
  <text x="56" y="155" text-anchor="start" fill="#64748b" font-size="16">Opener (lowest bar)</text>
  <rect x="249" y="142" width="16" height="16" rx="3" fill="#fda4af"/>
  <text x="272" y="155" text-anchor="start" fill="#64748b" font-size="16">Legion</text>
  <rect x="466" y="142" width="16" height="16" rx="3" fill="#fcd34d"/>
  <text x="489" y="155" text-anchor="start" fill="#64748b" font-size="16">Incident loop ③→④→⑤</text>
  <rect x="682" y="142" width="16" height="16" rx="3" fill="#a7f3d0"/>
  <text x="705" y="155" text-anchor="start" fill="#64748b" font-size="16">Proactive prediction</text>
  <rect x="898" y="142" width="16" height="16" rx="3" fill="#cbd5e1"/>
  <text x="921" y="155" text-anchor="start" fill="#64748b" font-size="16">Closing companion</text>
  <rect x="40" y="172" width="1002" height="74" rx="8" fill="#fffbeb" stroke="#fde68a"/>
  <text x="541.0" y="202" text-anchor="middle" fill="#78350f" font-size="17"><tspan font-weight="700">Legion + incident loop: </tspan>② makes clear it is not a single AI but a legion;</text>
  <text x="541.0" y="229" text-anchor="middle" fill="#78350f" font-size="17">then ③ inspection finds the anomaly → ④ root cause → ⑤ ops expert fixes it — detect → diagnose → repair.</text>
  <rect x="40" y="258" width="1002" height="74" rx="8" fill="#ecfdf5" stroke="#a7f3d0"/>
  <text x="541.0" y="288" text-anchor="middle" fill="#065f46" font-size="17"><tspan font-weight="700">Proactive prediction + closing companion: </tspan>⑥ from post-incident firefighting to pre-incident prediction;</text>
  <text x="541.0" y="315" text-anchor="middle" fill="#065f46" font-size="17">⑦ the Q&amp;A expert has your back — powerful features, plus someone to answer you.</text>
</svg>